<svg xmlns="http://www.w3.org/2000/svg" width="13.901" height="13.902" viewBox="0 0 13.901 13.902">
  <g id="グループ_270" data-name="グループ 270" transform="translate(-1223.359 -1019.22)">
    <path id="パス_2502" data-name="パス 2502" d="M1236.055,1029.526a2.4,2.4,0,0,1-2.4,2.4h-6.711a2.4,2.4,0,0,1-2.4-2.4v-6.711a2.4,2.4,0,0,1,2.4-2.4h6.711a2.4,2.4,0,0,1,2.4,2.4v6.711Zm-2.157-10.306h-7.191a3.356,3.356,0,0,0-3.355,3.356v7.19a3.356,3.356,0,0,0,3.355,3.356h7.191a3.356,3.356,0,0,0,3.355-3.356v-7.19a3.356,3.356,0,0,0-3.355-3.356Z" transform="translate(0.007 0)" fill="#fff"/>
    <path id="パス_2503" data-name="パス 2503" d="M1230.309,1028.568a2.4,2.4,0,1,1,2.4-2.4,2.4,2.4,0,0,1-2.4,2.4Zm0-5.992a3.6,3.6,0,1,0,3.6,3.6,3.6,3.6,0,0,0-3.6-3.6Z" fill="#fff"/>
    <path id="パス_2504" data-name="パス 2504" d="M1234.145,1023.055a.719.719,0,1,1,.718-.719.719.719,0,0,1-.718.719Z" fill="#fff"/>
  </g>
</svg>
