<svg xmlns="http://www.w3.org/2000/svg" width="9.203" height="17.434" viewBox="0 0 9.203 17.434">
  <path id="パス_2500" data-name="パス 2500" d="M1234.228,983.3l-.22,1.773a.592.592,0,0,1-.586.519h-2.871V993q-.454.042-.92.042a10.233,10.233,0,0,1-2.025-.2v-7.251H1225.4a.37.37,0,0,1-.368-.37V983a.369.369,0,0,1,.368-.369h2.208v-3.327a3.689,3.689,0,0,1,3.681-3.7h2.577a.37.37,0,0,1,.368.37V978.2a.369.369,0,0,1-.368.369h-1.841a1.475,1.475,0,0,0-1.472,1.479v2.588h3.092a.591.591,0,0,1,.585.665Z" transform="translate(-1225.03 -975.61)" fill="#fff"/>
</svg>
