<svg xmlns="http://www.w3.org/2000/svg" xmlns:xlink="http://www.w3.org/1999/xlink" width="57.946" height="50.183" viewBox="0 0 57.946 50.183"><defs><linearGradient id="a" y1="0.5" x2="1" y2="0.5" gradientUnits="objectBoundingBox"><stop offset="0" stop-color="#666"/><stop offset="1" stop-color="#333"/></linearGradient></defs><g transform="translate(-1216 -4103.971)"><path d="M1259.46,4103.971h-28.973L1216,4129.063l14.487,25.092h28.973l14.487-25.092Z" fill="url(#a)"/><path d="M1246.945,4129.18a1.972,1.972,0,1,0-1.972,1.972,1.972,1.972,0,0,0,1.972-1.972Z" fill="#fff"/><path d="M1244.973,4116.49a1.92,1.92,0,0,0-1.92,1.921c0,1.061,1.521,7.864,1.92,7.864s1.921-6.8,1.921-7.864a1.921,1.921,0,0,0-1.921-1.921Z" fill="#fff"/><path d="M1239.812,4117.587a1.922,1.922,0,0,0-.974,2.536c.432.969,4.589,6.565,4.953,6.4s-1.012-7-1.443-7.965a1.921,1.921,0,0,0-2.536-.974Z" fill="#fff"/><path d="M1238.255,4120.547a1.92,1.92,0,1,0-2.57,2.854c.788.71,6.862,4.132,7.129,3.835s-3.77-5.98-4.559-6.689Z" fill="#fff"/><path d="M1232.9,4125.259a1.922,1.922,0,0,0,1.234,2.42c1.008.328,7.949.983,8.072.6s-5.877-3.929-6.885-4.257a1.923,1.923,0,0,0-2.421,1.234Z" fill="#fff"/><path d="M1232.353,4130.507a1.921,1.921,0,0,0,2.111,1.709c1.055-.111,7.661-2.335,7.62-2.732s-6.967-1.2-8.022-1.089a1.921,1.921,0,0,0-1.709,2.112Z" fill="#fff"/><path d="M1236.607,4136.228c.919-.53,6.05-5.25,5.85-5.6s-6.852,1.738-7.771,2.268a1.921,1.921,0,0,0,1.921,3.327Z" fill="#fff"/><path d="M1237.514,4139.446a1.92,1.92,0,0,0,2.683-.425c.624-.858,3.391-7.256,3.068-7.491s-5.552,4.375-6.176,5.233a1.921,1.921,0,0,0,.425,2.683Z" fill="#fff"/><path d="M1242.335,4141.593a1.922,1.922,0,0,0,2.278-1.48c.22-1.037.147-8.008-.244-8.091s-3.293,6.255-3.514,7.292a1.922,1.922,0,0,0,1.48,2.279Z" fill="#fff"/><path d="M1247.612,4141.593a1.922,1.922,0,0,0,1.479-2.279c-.221-1.037-3.123-7.375-3.514-7.292s-.464,7.054-.244,8.091a1.922,1.922,0,0,0,2.279,1.48Z" fill="#fff"/><path d="M1252.432,4139.446a1.92,1.92,0,0,0,.425-2.683c-.623-.858-5.853-5.467-6.176-5.233s2.445,6.633,3.068,7.491a1.92,1.92,0,0,0,2.683.425Z" fill="#fff"/><path d="M1255.963,4135.525a1.921,1.921,0,0,0-.7-2.624c-.919-.53-7.571-2.614-7.771-2.268s4.932,5.065,5.85,5.6a1.921,1.921,0,0,0,2.624-.7Z" fill="#fff"/><path d="M1257.594,4130.507a1.923,1.923,0,0,0-1.71-2.112c-1.055-.11-7.98.692-8.021,1.089s6.565,2.621,7.62,2.732a1.921,1.921,0,0,0,2.111-1.709Z" fill="#fff"/><path d="M1254.622,4124.025c-1.009.328-7.009,3.877-6.886,4.257s7.064-.275,8.073-.6a1.921,1.921,0,0,0-1.187-3.654Z" fill="#fff"/><path d="M1247.132,4127.236c.267.3,6.341-3.125,7.129-3.835a1.92,1.92,0,1,0-2.57-2.854c-.788.709-4.826,6.392-4.559,6.689Z" fill="#fff"/><path d="M1250.135,4117.587a1.921,1.921,0,0,0-2.536.974c-.432.969-1.809,7.8-1.444,7.965s4.522-5.434,4.953-6.4a1.921,1.921,0,0,0-.973-2.536Z" fill="#fff"/></g></svg>