<svg xmlns="http://www.w3.org/2000/svg" width="12.606" height="15.232" viewBox="0 0 12.606 15.232">
  <path id="パス_2498" data-name="パス 2498" d="M1232.929,1071.429v-6.566s.74,1.234,3.416,1.31a.256.256,0,0,0,.261-.256v-1.856a.258.258,0,0,0-.248-.255,3.27,3.27,0,0,1-3.159-3.169.26.26,0,0,0-.262-.238h-2.116a.256.256,0,0,0-.256.255v10.437a2.15,2.15,0,0,1-2,2.174,2.1,2.1,0,1,1,.134-4.186.256.256,0,0,0,.289-.253v-1.86a.252.252,0,0,0-.232-.254,4.464,4.464,0,1,0,4.172,4.455" transform="translate(-1224 -1060.399)" fill="#fff"/>
</svg>
